<?xml version="1.0" encoding="UTF-8" standalone="no"?>
<!-- Created with Inkscape (http://www.inkscape.org/) -->

<svg
   xmlns:dc="http://purl.org/dc/elements/1.1/"
   xmlns:cc="http://creativecommons.org/ns#"
   xmlns:rdf="http://www.w3.org/1999/02/22-rdf-syntax-ns#"
   xmlns:svg="http://www.w3.org/2000/svg"
   xmlns="http://www.w3.org/2000/svg"
   xmlns:xlink="http://www.w3.org/1999/xlink"
   xmlns:sodipodi="http://sodipodi.sourceforge.net/DTD/sodipodi-0.dtd"
   xmlns:inkscape="http://www.inkscape.org/namespaces/inkscape"
   width="103.20765mm"
   height="9.3632193mm"
   viewBox="0 0 103.20765 9.3632193"
   version="1.1"
   id="svg8"
   inkscape:version="0.92.3 (2405546, 2018-03-11)">
  <defs
     id="defs2">
    <linearGradient
       id="linearGradient4745"
       inkscape:collect="always">
      <stop
         id="stop4741"
         offset="0"
         style="stop-color:#c8ab37;stop-opacity:1;" />
      <stop
         id="stop4743"
         offset="1"
         style="stop-color:#decd87;stop-opacity:1" />
    </linearGradient>
    <linearGradient
       inkscape:collect="always"
       id="linearGradient4734">
      <stop
         style="stop-color:#c8ab37;stop-opacity:1;"
         offset="0"
         id="stop4730" />
      <stop
         style="stop-color:#c8ab37;stop-opacity:0;"
         offset="1"
         id="stop4732" />
    </linearGradient>
    <linearGradient
       inkscape:collect="always"
       xlink:href="#linearGradient4734"
       id="linearGradient4736"
       x1="107.50698"
       y1="18.911013"
       x2="125.89711"
       y2="20.514629"
       gradientUnits="userSpaceOnUse" />
    <linearGradient
       inkscape:collect="always"
       xlink:href="#linearGradient4745"
       id="linearGradient4739"
       gradientUnits="userSpaceOnUse"
       x1="119.5341"
       y1="15.16924"
       x2="108.29382"
       y2="19.258032" />
  </defs>
  <sodipodi:namedview
     id="base"
     pagecolor="#ffffff"
     bordercolor="#666666"
     borderopacity="1.0"
     inkscape:pageopacity="0.0"
     inkscape:pageshadow="2"
     inkscape:zoom="1.979899"
     inkscape:cx="255.97408"
     inkscape:cy="51.488698"
     inkscape:document-units="mm"
     inkscape:current-layer="layer1"
     showgrid="false"
     fit-margin-top="0"
     fit-margin-left="0"
     fit-margin-right="0"
     fit-margin-bottom="0"
     inkscape:window-width="1680"
     inkscape:window-height="987"
     inkscape:window-x="-8"
     inkscape:window-y="-8"
     inkscape:window-maximized="1" />
  <metadata
     id="metadata5">
    <rdf:RDF>
      <cc:Work
         rdf:about="">
        <dc:format>image/svg+xml</dc:format>
        <dc:type
           rdf:resource="http://purl.org/dc/dcmitype/StillImage" />
        <dc:title></dc:title>
      </cc:Work>
    </rdf:RDF>
  </metadata>
  <g
     inkscape:label="Ebene 1"
     inkscape:groupmode="layer"
     id="layer1"
     transform="translate(-67.314459,-13.965741)">
    <g
       aria-label="Bonzen "
       transform="matrix(0.26458333,0,0,0.26458333,33.98006,-75.25506)"
       style="font-style:normal;font-weight:normal;font-size:40px;line-height:1.25;font-family:sans-serif;letter-spacing:0px;word-spacing:0px;fill:#c8ab37;fill-opacity:1;stroke:none"
       id="flowRoot3713">
      <path
         d="m 127.02344,344.04222 q 4.64844,-3.06641 10.42969,-3.06641 4.19921,0 6.85546,1.89453 2.65625,1.875 2.65625,4.86328 0,3.98438 -4.60937,5.33203 v 0.21485 q 0.46875,0.11719 1.13281,0.3125 2.16797,-0.50781 3.39844,-2.07031 1.25,-1.5625 1.25,-3.76954 0,-2.77343 -2.28516,-4.92187 v -0.11719 l 0.21485,0.17578 q 2.55859,1.97266 2.55859,5.0586 0,4.25781 -4.41406,5.9375 1.91406,0.8789 2.96875,2.5 1.07422,1.62109 1.07422,3.65234 0,2.91016 -2.10938,4.66797 -2.10937,1.73828 -5.625,1.73828 h -13.98437 l 2.69531,-2.30469 v -8.45703 q -1.15234,0 -2.69531,0.23438 l -0.15625,-0.56641 q 1.73828,-0.17578 2.85156,-0.17578 v -1.03516 h -0.48828 q -1.09375,0 -2.75391,0.15625 l 0.85938,-1.875 0.3125,0.0195 q 0.76171,0.0586 1.15234,0.0586 0.58594,0 0.91797,0.0586 v -7.34375 z m 6.11328,-0.29297 v 8.80859 q 0.21484,-0.0195 0.29297,-0.0195 l 0.35156,0.0195 q 0.0781,0 0.33203,0 v -7.98828 q 1.67969,-0.78125 3.28125,-0.78125 1.83594,0 2.89063,0.66406 1.07422,0.66407 1.8164,2.26563 l -0.54687,-0.3125 q -1.46485,-2.20703 -4.17969,-2.20703 -1.52344,0 -2.73437,0.85937 v 7.5 h 0.82031 q 3.73047,0 5.54687,-1.23047 1.83594,-1.25 1.83594,-3.80859 0,-2.24609 -1.52344,-3.61328 -1.5039,-1.38672 -3.96484,-1.38672 -2.16797,0 -4.21875,1.23047 z m 0,10.41015 v 10.76172 h 0.97656 v -9.58984 q 1.38672,-0.0977 1.99219,-0.0977 3.24219,0 4.6875,0.60547 1.46484,0.60547 2.32422,2.30469 h -0.23438 q -0.95703,-1.34766 -2.40234,-1.85547 -1.44531,-0.52734 -4.23828,-0.52734 l -1.60156,0.0391 v 9.12109 h 0.625 l 2.83203,-0.0976 q 5.50781,-0.39063 5.50781,-5.35157 0,-3.10546 -1.81641,-4.23828 -1.8164,-1.15234 -6.79687,-1.15234 -0.48828,0 -1.85547,0.0781 z m 14.62891,1.36719 q 2.08984,1.6211 2.08984,4.92188 0,3.32031 -2.32422,5.48828 -2.26562,2.10937 -6.66016,2.10937 h -13.28125 l -0.33203,-0.52734 h 12.32422 q 4.02344,0 5.80078,-0.82031 3.94532,-1.83594 3.94532,-6.38672 0,-2.53906 -1.79688,-4.60938 z"
         style="font-style:normal;font-variant:normal;font-weight:normal;font-stretch:normal;font-family:Algerian;-inkscape-font-specification:Algerian;fill:#c8ab37;fill-opacity:1"
         id="path4645"
         inkscape:connector-curvature="0" />
      <path
         d="m 167.51172,345.74144 -0.33203,-0.19532 q -1.875,-1.03515 -3.4375,-1.03515 -5.13672,0 -5.13672,10.09765 0,7.38282 3.18359,9.78516 l -0.17578,0.19531 q -1.95312,-1.38672 -2.79297,-3.63281 Q 158,358.69065 158,354.843 q 0,-10.83985 5.70313,-10.83985 2.59765,0 3.80859,1.73829 z m -4.17969,-4.60938 q 4.7461,0 7.57813,3.59375 2.85156,3.59375 2.85156,9.60938 0,5.68359 -2.8125,9.0625 -2.79297,3.3789 -7.51953,3.3789 -3.73047,0 -6.64063,-2.38281 -4.27734,-3.51563 -4.27734,-10.41016 0,-5.89843 2.92969,-9.375 2.92968,-3.47656 7.89062,-3.47656 z m 0,1.67969 q -6.60156,0 -6.60156,11.60156 0,10.72266 6.50391,10.72266 3.02734,0 4.60937,-2.83203 1.58203,-2.85157 1.58203,-8.32032 0,-6.1914 -1.52344,-8.63281 -1.60156,-2.53906 -4.57031,-2.53906 z m 6.23047,-0.6836 q 2.79297,1.34766 4.41406,4.60938 1.6211,3.26172 1.6211,7.53906 0,6.28906 -3.20313,10.15625 -3.18359,3.86719 -8.3789,3.86719 -3.32032,0 -6.21094,-2.24609 v -0.0977 q 2.42187,1.77734 6.07422,1.77734 4.90234,0 8.04687,-3.6914 3.14453,-3.69141 3.14453,-9.4336 0,-4.27734 -1.44531,-7.48047 -1.42578,-3.20312 -4.0625,-4.78515 z"
         style="font-style:normal;font-variant:normal;font-weight:normal;font-stretch:normal;font-family:Algerian;-inkscape-font-specification:Algerian;fill:#c8ab37;fill-opacity:1"
         id="path4647"
         inkscape:connector-curvature="0" />
      <path
         d="m 199.66016,341.38597 q -2.22657,1.15234 -2.8711,2.10937 -0.97656,1.48438 -0.97656,4.47266 v 1.26953 17.20703 h -3.30078 l -9.21875,-17.89062 v 10.60546 l -0.0195,0.87891 0.23437,2.8125 q 0.39063,1.95313 1.77735,2.89063 l 0.15625,0.13671 q -2.69532,-0.89843 -2.69532,-5.76171 l 0.0195,-1.83594 v -10.6836 l -1.05469,-2.05078 v 11.25 q 0,5.35157 0.70312,7.01172 0.70313,1.66016 3.30078,2.42188 l 1.69922,1.8164 h -10.58593 l -0.3125,-0.52734 h 9.78515 l -1.01562,-1.07422 h -9.10157 q 2.38282,-0.85937 3.16407,-2.30469 0.78125,-1.44531 0.78125,-4.96093 v -15.625 l -2.59766,-2.16797 h 9.88281 l -2.77343,1.85547 9.45312,18.4375 v -2.34375 l -8.10547,-15.78125 2.73438,-1.85547 0.37109,0.37109 -2.42187,1.64063 7.42187,14.57031 v -9.1211 -1.03515 q 0,-3.39844 -0.56641,-4.53125 -0.54687,-1.15235 -2.73437,-2.20703 z m 0.68359,1.44531 -0.35156,0.58594 q -1.50391,0.35156 -2.05078,1.30859 -0.52735,0.9375 -0.52735,3.18359 v 20.13672 h -4.19922 l -0.2539,-0.52734 h 3.92578 v -19.41406 q 0,-2.75391 0.70312,-3.82813 0.72266,-1.09375 2.75391,-1.44531 z"
         style="font-style:normal;font-variant:normal;font-weight:normal;font-stretch:normal;font-family:Algerian;-inkscape-font-specification:Algerian;fill:#c8ab37;fill-opacity:1"
         id="path4649"
         inkscape:connector-curvature="0" />
      <path
         d="m 222.74609,341.38597 -15.66406,23.39843 h 1.23047 l 15.35156,-22.96875 0.35157,0.46875 -15.03907,22.5 h 1.95313 l 1.54297,-0.0391 h 0.80078 q 1.60156,0 3.02734,-0.60547 1.44531,-0.60547 2.1875,-1.58203 0.91797,-1.21094 1.5625,-2.67578 1.64063,4.29688 3.47656,6.5625 h -22.22656 l 14.47266,-21.73828 -0.39063,-0.0195 -2.5,-0.0391 q -3.55468,0 -4.90234,0.78125 -1.34766,0.76171 -1.95313,3.16406 l -0.41015,-0.44922 q 0.37109,-1.66016 1.60156,-2.75391 0.82031,-0.74218 1.93359,-0.97656 1.11329,-0.25391 3.67188,-0.25391 1.62109,0 2.98828,0.0586 l 0.29297,0.0195 0.76172,-1.11328 q -1.36719,-0.0977 -2.69531,-0.0977 -4.04297,0 -5.56641,0.35156 -1.50391,0.35157 -2.61719,1.52344 -0.85937,0.91797 -1.40625,2.48047 l -0.15625,-0.33203 q -0.97656,-2.24609 -2.77344,-5.44922 l -0.11718,-0.21484 z m 2.85157,24.90234 -0.9961,1.75781 h -22.30468 l -0.41016,-0.52734 h 22.40234 l 0.70313,-1.23047 q -2.2461,-2.73437 -3.53516,-6.21094 l 0.66406,0.25391 q 0.9961,2.94922 3.32032,5.78125 z"
         style="font-style:normal;font-variant:normal;font-weight:normal;font-stretch:normal;font-family:Algerian;-inkscape-font-specification:Algerian;fill:#c8ab37;fill-opacity:1"
         id="path4651"
         inkscape:connector-curvature="0" />
      <path
         d="m 248.23438,341.38597 -0.3125,0.37109 q -1.99219,2.44141 -3.16407,5.60547 -0.19531,-0.44922 -0.29297,-0.66406 -1.07421,-2.34375 -2.30468,-3.02735 -1.23047,-0.68359 -4.41407,-0.68359 -1.46484,0 -3.51562,0.0977 v 8.98437 h 1.25 v -7.94922 q 1.48437,-0.13672 2.83203,-0.13672 2.48047,0 3.65234,0.52735 1.17188,0.52734 2.08985,2.05078 -0.27344,-0.19531 -0.39063,-0.29297 -1.58203,-1.25 -2.28515,-1.48438 -0.70313,-0.23437 -2.77344,-0.23437 -0.625,0 -2.22656,0.0781 l -0.41016,0.0195 v 7.42187 h 3.59375 l 2.51953,-3.45703 v 8.41797 l -2.51953,-3.26172 h -5.33203 v 10.95703 h 1.25 v -10.03906 h 4.23828 l 0.50781,0.50781 h -4.25781 v 9.53125 q 3.98438,0 5.66406,-0.56641 1.67969,-0.5664 2.63672,-2.22656 l 1.03516,-1.77734 q 0.0586,-0.11719 0.23437,-0.42969 0.50782,2.14844 1.25,3.4375 0.76172,1.28906 2.5,3.00781 h -21.89453 l 2.96875,-2.26562 v -8.71094 q -1.64062,0.19531 -2.96875,1.01563 l -0.27344,-0.41016 q 1.19141,-0.85938 3.24219,-1.11328 v -0.91797 q -0.33203,-0.0391 -0.46875,-0.0391 -1.99219,0 -3.63281,1.46484 0.89844,-3.125 4.10156,-3.125 v -8.33984 l -2.96875,-2.34375 z m 0.9375,1.36718 -0.13672,0.17579 q -2.38282,3.20312 -3.1836,5.37109 l -0.33203,-0.41016 q 1.3086,-3.02734 3.37891,-5.54687 z m -5.74219,6.50391 v 8.63281 l -0.48828,-0.2539 v -8.63282 z m 8.08594,17.03125 -1.01563,1.75781 h -21.32812 l -0.3125,-0.52734 h 21.38671 l 0.66407,-1.23047 q -2.8125,-2.59766 -3.96485,-5.54687 l 0.625,0.23437 q 1.07422,2.5 3.63282,5 z"
         style="font-style:normal;font-variant:normal;font-weight:normal;font-stretch:normal;font-family:Algerian;-inkscape-font-specification:Algerian;fill:#c8ab37;fill-opacity:1"
         id="path4653"
         inkscape:connector-curvature="0" />
      <path
         d="m 274.19141,341.38597 q -2.22657,1.15234 -2.8711,2.10937 -0.97656,1.48438 -0.97656,4.47266 v 1.26953 17.20703 h -3.30078 l -9.21875,-17.89062 v 10.60546 l -0.0195,0.87891 0.23437,2.8125 q 0.39063,1.95313 1.77735,2.89063 l 0.15625,0.13671 q -2.69532,-0.89843 -2.69532,-5.76171 l 0.0195,-1.83594 v -10.6836 l -1.05469,-2.05078 v 11.25 q 0,5.35157 0.70312,7.01172 0.70313,1.66016 3.30078,2.42188 l 1.69922,1.8164 h -10.58593 l -0.3125,-0.52734 h 9.78515 l -1.01562,-1.07422 h -9.10157 q 2.38282,-0.85937 3.16407,-2.30469 0.78125,-1.44531 0.78125,-4.96093 v -15.625 l -2.59766,-2.16797 h 9.88281 l -2.77343,1.85547 9.45312,18.4375 v -2.34375 l -8.10547,-15.78125 2.73438,-1.85547 0.37109,0.37109 -2.42187,1.64063 7.42187,14.57031 v -9.1211 -1.03515 q 0,-3.39844 -0.56641,-4.53125 -0.54687,-1.15235 -2.73437,-2.20703 z m 0.68359,1.44531 -0.35156,0.58594 q -1.50391,0.35156 -2.05078,1.30859 -0.52735,0.9375 -0.52735,3.18359 v 20.13672 h -4.19922 l -0.2539,-0.52734 h 3.92578 v -19.41406 q 0,-2.75391 0.70312,-3.82813 0.72266,-1.09375 2.75391,-1.44531 z"
         style="font-style:normal;font-variant:normal;font-weight:normal;font-stretch:normal;font-family:Algerian;-inkscape-font-specification:Algerian;fill:#c8ab37;fill-opacity:1"
         id="path4655"
         inkscape:connector-curvature="0" />
    </g>
    <g
       aria-label="$hop.com"
       style="font-style:normal;font-weight:normal;font-size:10.58333302px;line-height:1.25;font-family:sans-serif;letter-spacing:0px;word-spacing:0px;fill:#c8ab37;fill-opacity:1;stroke:none;stroke-width:0.26458332"
       id="text3727"
       transform="translate(76.502381,-85.422619)">
      <path
         d="m 50.229119,100.26159 q -0.583943,0.92501 -0.837158,1.69499 l -0.01034,0.0465 -0.03101,-0.005 q -0.201538,-1.13171 -1.219564,-1.42627 v 2.27376 l 0.310059,0.0827 v -2.02055 q 0.273885,0.12919 0.387573,0.23254 0.113688,0.10335 0.268718,0.3669 h -0.04651 l -0.03617,-0.0362 q -0.279052,-0.25838 -0.439249,-0.34106 v 1.83968 l 0.08268,0.0258 q 0.862996,0.24805 1.204061,0.53227 0.63562,0.53744 0.63562,1.4056 0,0.84749 -0.640788,1.43661 -0.63562,0.58911 -1.560628,0.58911 -0.04651,0 -0.165365,-0.0103 v 0.95602 h -0.418579 v -0.55811 l -0.08268,-0.0155 q -0.408244,-0.0827 -0.625285,-0.13953 l -0.480591,-0.11885 q -0.325561,-0.0775 -0.661458,-0.0775 -0.279053,0 -0.54777,0.11369 l -0.06718,-0.1602 q 0.28422,-0.10852 0.558105,-0.10852 0.356567,0 1.235067,0.21704 0.315226,0.0724 0.604614,0.12919 l 0.06718,0.0155 v -0.29456 q -0.387573,-0.0465 -1.266072,-0.27388 -0.387574,-0.10336 -0.651123,-0.10336 -0.320394,0 -0.682129,0.20154 l -0.04134,-0.0827 0.04651,-0.0724 q 0.594279,-0.98185 0.852662,-1.74666 h 0.08268 q 0.09819,0.72347 0.532267,1.16272 0.434082,0.43925 1.126546,0.51676 v -2.20141 l -0.10852,-0.031 q -1.023194,-0.26355 -1.302246,-0.40824 -0.273885,-0.14986 -0.397909,-0.49093 l 0.191203,0.10335 q 0.155029,0.28939 0.91984,0.48059 l 0.620118,0.15503 0.07751,0.0207 v -0.27905 l -0.103353,-0.0207 q -1.064534,-0.22221 -1.441772,-0.50643 -0.279053,-0.21704 -0.449585,-0.58394 -0.170532,-0.37207 -0.170532,-0.76998 0,-0.86816 0.583944,-1.37976 0.583943,-0.5116 1.581298,-0.5116 v -0.69763 h 0.418579 v 0.72864 q 0.1757,0.031 0.310059,0.0672 v -0.614952 l 0.134359,0.09818 v 0.516762 q 0.118855,0.0258 0.645955,0.16019 0.26355,0.0672 0.454753,0.0672 0.273885,0 0.511596,-0.18603 z m -1.663981,6.27352 q 0.511597,-0.10852 0.79065,-0.40824 0.28422,-0.29973 0.28422,-0.73898 0,-0.44441 -0.320394,-0.81132 -0.201538,-0.23254 -0.418579,-0.34623 -0.217041,-0.11369 -0.713135,-0.24805 l -0.06718,-0.0207 v 2.59416 q 0.03617,0 0.05684,0 0.0155,0 0.201538,-0.0207 0.02067,0 0.05684,0 v -2.19625 q 0.821656,0.18087 1.012858,0.69763 h -0.03617 q -0.315226,-0.3824 -0.847494,-0.51159 z m -0.857828,-3.78788 v -1.82418 q -0.361735,0.031 -0.578776,0.24805 -0.211874,0.21187 -0.211874,0.5426 0,0.45992 0.552938,0.80615 v 0.0362 q -0.702799,-0.29973 -0.702799,-0.863 0,-0.37207 0.273885,-0.64079 0.279052,-0.26872 0.666626,-0.26872 v -0.27905 q -0.516765,0 -0.888835,0.32039 -0.37207,0.31523 -0.37207,0.75965 0,0.83199 1.193725,1.14722 z m 2.852539,-2.27376 -0.04651,0.0827 q -0.341065,0.58911 -0.563273,1.06453 l -0.201538,0.43925 -0.02584,0.062 -0.124023,-0.0465 q 0.04134,-0.0879 0.04651,-0.0982 l 0.222208,-0.48576 q 0.289388,-0.64079 0.563274,-1.07487 z m -0.33073,3.08508 q 0.707968,0.51676 0.707968,1.45727 0,0.84233 -0.61495,1.51929 -0.609782,0.67696 -1.483114,0.79582 l -0.227376,0.031 -0.04651,0.0103 v 0.93017 h -0.56844 l -0.113688,-0.13952 h 0.552937 v -0.93535 q 0.423747,0 0.930176,-0.21187 0.645955,-0.26872 1.033529,-0.81649 0.387573,-0.55293 0.387573,-1.20406 0,-0.82682 -0.558106,-1.4056 z m -3.669026,1.47794 q 0.09302,0.50127 0.304891,0.78032 0.217041,0.27905 0.713135,0.5581 v 0.0258 q -0.459921,-0.10852 -0.780315,-0.47025 -0.315226,-0.36174 -0.382405,-0.85783 z"
         style="font-style:normal;font-variant:normal;font-weight:normal;font-stretch:normal;font-family:Algerian;-inkscape-font-specification:Algerian;fill:#c8ab37;stroke-width:0.26458332"
         id="path4658"
         inkscape:connector-curvature="0" />
      <path
         d="m 51.438348,100.31844 h 2.428792 l -0.702799,0.68729 v 2.23242 q 0.118856,0.0207 0.279053,0.031 v -2.21175 l 0.563273,-0.55811 0.103353,0.093 -0.532268,0.5271 v 2.15491 l 0.170533,0.0155 q 0.397908,0.0362 0.769978,0.0362 0.537435,0 0.925009,-0.0517 v -2.37712 l -0.630453,-0.57877 h 2.387451 l -0.713135,0.68729 v 5.38469 l 0.625285,0.5581 h -2.377116 l 0.707968,-0.60461 v -2.19108 q -0.434083,0.10335 -0.894003,0.10335 -0.434082,0 -0.89917,-0.0465 l -0.07235,-0.005 v 2.18592 l 0.852661,0.98185 h -2.671671 l -0.134359,-0.13953 h 2.52181 l -0.702799,-0.76998 v -2.37711 l 0.149861,0.0103 q 0.682129,0.0517 0.98702,0.0517 0.496094,0 0.862997,-0.13436 v -0.18603 q -0.485759,0.0723 -1.131714,0.0723 -0.346232,0 -0.506429,-0.0155 l -0.521932,-0.0465 q -0.03101,-0.005 -0.118856,-0.0103 v 2.56315 l 0.661458,0.5581 h -2.387451 l 0.692464,-0.60461 v -2.25826 q -0.434082,0 -0.692464,0.34106 l -0.10852,-0.0517 q 0.299723,-0.37724 0.800984,-0.41858 v -0.19121 q -0.578776,0 -0.914673,0.43925 l -0.07751,-0.0517 q 0.304891,-0.74414 0.992187,-0.8785 v -2.32544 z m 5.978963,0.28938 -0.527099,0.5116 v 5.271 l 0.857828,0.98185 h -2.682006 l -0.129192,-0.13953 h 2.516643 l -0.692465,-0.78031 v -5.38469 l 0.573609,-0.56844 z"
         style="font-style:normal;font-variant:normal;font-weight:normal;font-stretch:normal;font-family:Algerian;-inkscape-font-specification:Algerian;fill:#c8ab37;stroke-width:0.26458332"
         id="path4660"
         inkscape:connector-curvature="0" />
      <path
         d="m 61.975172,101.47082 -0.08785,-0.0517 q -0.496094,-0.27388 -0.909505,-0.27388 -1.35909,0 -1.35909,2.67167 0,1.95337 0.842325,2.58899 l -0.04651,0.0517 q -0.516765,-0.36691 -0.738973,-0.96119 -0.217041,-0.59944 -0.217041,-1.61747 0,-2.86804 1.508952,-2.86804 0.687296,0 1.00769,0.45992 z m -1.105876,-1.21956 q 1.255738,0 2.005046,0.95084 0.754476,0.95085 0.754476,2.54248 0,1.50379 -0.744141,2.39779 -0.738973,0.894 -1.989542,0.894 -0.98702,0 -1.756999,-0.63045 -1.131714,-0.93018 -1.131714,-2.75435 0,-1.56063 0.775146,-2.48047 0.775147,-0.91984 2.087728,-0.91984 z m 0,0.44441 q -1.746663,0 -1.746663,3.06958 0,2.83704 1.720825,2.83704 0.800985,0 1.219564,-0.74931 0.418579,-0.75447 0.418579,-2.20141 0,-1.63815 -0.403076,-2.2841 -0.423747,-0.6718 -1.209229,-0.6718 z m 1.648478,-0.18086 q 0.738973,0.35656 1.167888,1.21956 0.428914,0.863 0.428914,1.99471 0,1.66398 -0.847493,2.68717 -0.842326,1.0232 -2.216919,1.0232 -0.8785,0 -1.643311,-0.59428 v -0.0258 q 0.640788,0.47026 1.607137,0.47026 1.297079,0 2.129069,-0.97669 0.831991,-0.97668 0.831991,-2.49597 0,-1.13171 -0.382406,-1.97921 -0.377238,-0.84749 -1.07487,-1.26607 z"
         style="font-style:normal;font-variant:normal;font-weight:normal;font-stretch:normal;font-family:Algerian;-inkscape-font-specification:Algerian;fill:#c8ab37;stroke-width:0.26458332"
         id="path4662"
         inkscape:connector-curvature="0" />
      <path
         d="m 64.874221,100.31844 h 2.320271 q 1.477946,0 2.103231,0.40824 0.795817,0.5116 0.795817,1.4211 0,0.55294 -0.304891,0.96118 -0.304891,0.40825 -0.852661,0.58911 -0.54777,0.18087 -1.741496,0.18087 h -0.63562 v 2.50114 l 0.630453,0.56844 h -2.402954 l 0.718302,-0.60461 v -2.07223 q -0.06201,-0.005 -0.08785,-0.005 -0.37207,0 -0.713135,0.16019 l -0.04651,-0.093 q 0.346232,-0.19637 0.620117,-0.19637 h 0.186035 l 0.04134,-0.005 v -0.25322 q -0.118856,-0.0155 -0.160197,-0.0155 -0.552938,0 -0.883667,0.26872 l -0.05168,-0.0775 q 0.315226,-0.57877 1.012858,-0.57877 h 0.08268 v -2.53215 z m 1.684651,0.53226 v 2.58899 h 0.06718 l 0.134358,0.005 q 0.02067,0 0.06718,-0.005 v -2.30477 h 0.56844 q 0.661459,0 0.930176,0.11886 0.273885,0.11369 0.465088,0.48059 -0.191203,-0.26355 -0.480591,-0.3669 -0.28422,-0.10852 -0.806152,-0.10852 h -0.532267 v 2.18074 q 1.023193,0 1.498616,-0.29972 0.480591,-0.29972 0.480591,-0.94051 0,-0.7183 -0.428914,-1.04387 -0.423747,-0.32556 -1.369426,-0.32556 -0.242879,0 -0.594279,0.0207 z m 3.271118,0.0207 q 0.315226,0.15503 0.506429,0.54777 0.191203,0.38758 0.191203,0.88367 0,1.12138 -0.868164,1.61231 -0.656291,0.37207 -2.242757,0.37207 -0.26355,0 -0.444417,-0.0103 v 2.13424 l 0.81132,0.96118 h -2.58899 l -0.139526,-0.13953 h 2.43396 L 66.82759,106.468 v -2.33061 q 0.449585,0.0258 0.956014,0.0258 1.333251,0 1.979207,-0.47025 0.645955,-0.47026 0.645955,-1.44178 0,-0.40307 -0.124023,-0.69763 -0.124024,-0.29972 -0.454753,-0.68213 z"
         style="font-style:normal;font-variant:normal;font-weight:normal;font-stretch:normal;font-family:Algerian;-inkscape-font-specification:Algerian;fill:#c8ab37;stroke-width:0.26458332"
         id="path4664"
         inkscape:connector-curvature="0" />
      <path
         d="m 71.814365,105.68762 q 0.279053,0 0.475424,0.19637 0.19637,0.19637 0.19637,0.47542 0,0.27389 -0.19637,0.47026 -0.196371,0.19637 -0.475424,0.19637 -0.273885,0 -0.470255,-0.19637 -0.196371,-0.19637 -0.196371,-0.47026 0,-0.27905 0.196371,-0.47542 0.19637,-0.19637 0.470255,-0.19637 z m 0.847494,0.21704 q 0.28422,0.26355 0.28422,0.66146 0,0.3514 -0.26355,0.61495 -0.258382,0.26355 -0.604614,0.26355 -0.418579,0 -0.676961,-0.31006 l 0.03617,-0.0362 q 0.33073,0.19637 0.599447,0.19637 0.325562,0 0.552938,-0.2222 0.232544,-0.22738 0.232544,-0.53744 0,-0.29456 -0.206706,-0.59428 z"
         style="font-style:normal;font-variant:normal;font-weight:normal;font-stretch:normal;font-family:Algerian;-inkscape-font-specification:Algerian;fill:#c8ab37;stroke-width:0.26458332"
         id="path4666"
         inkscape:connector-curvature="0" />
      <path
         d="m 79.111076,100.47863 -0.05684,0.0982 q -0.465088,0.81132 -0.806152,1.62264 l -0.04651,0.11885 -0.06718,-0.0362 q -0.118856,-0.78548 -0.552938,-1.2454 -0.434082,-0.45992 -1.049032,-0.45992 -0.65629,0 -1.09554,0.57361 -0.552938,0.71313 -0.552938,2.41845 0,1.46761 0.506429,2.2996 0.511597,0.832 1.415934,0.832 0.72347,0 1.152385,-0.4806 0.434082,-0.48575 0.516764,-1.38492 0.02067,-0.21705 0.1757,-0.21705 0.201538,0 0.201538,0.3359 0,0.50126 -0.227376,1.0387 -0.480591,1.13688 -1.984375,1.13688 -1.343587,0 -2.134237,-0.94051 -0.790649,-0.94568 -0.790649,-2.55282 0,-1.48311 0.821655,-2.48563 0.821655,-1.00253 2.041219,-1.00253 0.578776,0 1.317749,0.28422 0.387573,0.14987 0.640788,0.14987 0.273885,0 0.490926,-0.14987 z m -1.498616,0.89401 q -0.470256,-0.37724 -0.888835,-0.37724 -1.338419,0 -1.338419,2.55281 0,1.16272 0.310058,1.93787 0.310059,0.76998 0.873332,0.99735 v 0.0517 q -0.609782,-0.12402 -0.976685,-0.93534 -0.361735,-0.81649 -0.361735,-2.06189 0,-2.67167 1.467611,-2.67167 0.496094,0 0.914673,0.43925 z m 1.684651,3.55017 q -0.08268,1.28157 -0.718302,1.95336 -0.630453,0.66663 -1.767334,0.66663 -0.862996,0 -1.607137,-0.53227 v -0.0413 q 0.661458,0.43408 1.596802,0.43408 1.023193,0 1.669148,-0.65629 0.315227,-0.32039 0.465088,-0.7183 0.149862,-0.39791 0.201538,-1.0542 l 0.01034,-0.11885 z m 0.191203,-4.19613 -0.05684,0.0982 q -0.563273,0.96119 -0.89917,1.75184 l -0.139526,-0.0672 0.05684,-0.12919 q 0.258382,-0.54261 0.454752,-0.89917 l 0.413412,-0.73381 0.05168,-0.093 z"
         style="font-style:normal;font-variant:normal;font-weight:normal;font-stretch:normal;font-family:Algerian;-inkscape-font-specification:Algerian;fill:#c8ab37;stroke-width:0.26458332"
         id="path4668"
         inkscape:connector-curvature="0" />
      <path
         d="m 83.844639,101.47082 -0.08785,-0.0517 q -0.496094,-0.27388 -0.909505,-0.27388 -1.359091,0 -1.359091,2.67167 0,1.95337 0.842326,2.58899 l -0.04651,0.0517 q -0.516764,-0.36691 -0.738972,-0.96119 -0.217041,-0.59944 -0.217041,-1.61747 0,-2.86804 1.508951,-2.86804 0.687297,0 1.007691,0.45992 z m -1.105876,-1.21956 q 1.255737,0 2.005046,0.95084 0.754475,0.95085 0.754475,2.54248 0,1.50379 -0.74414,2.39779 -0.738973,0.894 -1.989543,0.894 -0.98702,0 -1.756998,-0.63045 -1.131714,-0.93018 -1.131714,-2.75435 0,-1.56063 0.775146,-2.48047 0.775147,-0.91984 2.087728,-0.91984 z m 0,0.44441 q -1.746663,0 -1.746663,3.06958 0,2.83704 1.720825,2.83704 0.800985,0 1.219564,-0.74931 0.418579,-0.75447 0.418579,-2.20141 0,-1.63815 -0.403076,-2.2841 -0.423747,-0.6718 -1.209229,-0.6718 z m 1.648478,-0.18086 q 0.738973,0.35656 1.167888,1.21956 0.428914,0.863 0.428914,1.99471 0,1.66398 -0.847494,2.68717 -0.842325,1.0232 -2.216918,1.0232 -0.8785,0 -1.643311,-0.59428 v -0.0258 q 0.640788,0.47026 1.607137,0.47026 1.297078,0 2.129069,-0.97669 0.831991,-0.97668 0.831991,-2.49597 0,-1.13171 -0.382406,-1.97921 -0.377238,-0.84749 -1.07487,-1.26607 z"
         style="font-style:normal;font-variant:normal;font-weight:normal;font-stretch:normal;font-family:Algerian;-inkscape-font-specification:Algerian;fill:#c8ab37;stroke-width:0.26458332"
         id="path4670"
         inkscape:connector-curvature="0" />
      <path
         d="m 93.415113,100.31844 -0.707968,0.7183 v 5.30717 l 0.635621,0.60461 H 90.96565 l 0.718302,-0.60461 v -3.47783 l -1.638143,4.50619 h -0.496093 l -0.04134,-0.13953 h 0.449585 l 1.725993,-4.80591 v -0.79065 l -1.922363,5.30717 h -0.361735 l -1.415934,-4.17028 v 2.73368 q 0,0.54777 0.07235,0.77515 0.07235,0.22737 0.341064,0.50126 l 0.465088,0.58911 h -2.702677 l -0.09302,-0.13953 h 2.537313 l -0.191203,-0.28422 h -2.304769 l 0.108521,-0.0568 q 0.573608,-0.31523 0.754476,-0.63562 0.186035,-0.32556 0.186035,-1.0232 v -4.27364 l -0.682129,-0.64078 h 2.671671 l -0.749308,0.67696 1.462443,4.32531 0.186035,-0.44958 -1.322916,-3.83439 0.676961,-0.50126 0.10852,0.0878 -0.645955,0.45475 1.229899,3.60185 1.333252,-3.68453 -0.630452,-0.67696 z m -5.849772,1.22473 v 3.71037 q 0,0.85266 0.160197,1.17305 0.165364,0.32039 0.676961,0.46509 l -0.04651,-0.0775 q -0.506429,-0.3514 -0.506429,-1.01285 v -0.38241 -3.05408 z m 6.13916,-0.82166 -0.583944,0.41858 v 5.20899 l 0.89917,1.02319 h -2.744019 l -0.07235,-0.13953 h 2.50114 l -0.718303,-0.81132 v -5.36918 l 0.609782,-0.41858 z"
         style="font-style:normal;font-variant:normal;font-weight:normal;font-stretch:normal;font-family:Algerian;-inkscape-font-specification:Algerian;fill:#c8ab37;stroke-width:0.26458332"
         id="path4672"
         inkscape:connector-curvature="0" />
    </g>
    <g
       id="g4712"
       style="stroke:url(#linearGradient4736)">
      <path
         id="path4705"
         style="fill:none;stroke:url(#linearGradient4739);stroke-width:0.66500002;stroke-linecap:butt;stroke-linejoin:miter;stroke-miterlimit:4;stroke-dasharray:none;stroke-opacity:1"
         d="m 115.18045,14.869152 3.14566,3.046023 m -5.45041,-3.044591 -3.2281,3.185739 m 4.33749,0.453094 -3.71809,-3.369213 m 3.72988,7.29072 -0.0118,-3.921505 3.67345,-3.342725 m 2.12653,1.67191 -5.80548,6.013495 -5.84307,-5.96175 2.11706,-2.081092 7.35361,-0.03198 z"
         inkscape:connector-curvature="0"
         sodipodi:nodetypes="ccccccccccccccc" />
    </g>
  </g>
</svg>
