<?xml version="1.0" encoding="UTF-8"?>
<!DOCTYPE svg PUBLIC "-//W3C//DTD SVG 1.1//EN" "http://www.w3.org/Graphics/SVG/1.1/DTD/svg11.dtd">
<svg xmlns="http://www.w3.org/2000/svg" xmlns:xlink="http://www.w3.org/1999/xlink" version="1.1" width="204px" height="205px" viewBox="-0.5 -0.5 204 205"><defs/><g><path d="M 27 151 L 57.04 87 L 107 87 L 76.96 151 Z" fill="none" stroke="#d3b34b" stroke-width="5" stroke-miterlimit="10" transform="rotate(-90,67,119)" pointer-events="all"/><path d="M 103 42 L 168 72 L 103 102 L 38 72 Z" fill="none" stroke="#d3b34b" stroke-width="5" stroke-miterlimit="10" pointer-events="all"/><path d="M 99 151 L 129.04 87 L 179 87 L 148.96 151 Z" fill="none" stroke="#d3b34b" stroke-width="5" stroke-miterlimit="10" transform="translate(139,0)scale(-1,1)translate(-139,0)rotate(90,139,119)" pointer-events="all"/><path d="M 10.76 60.96 C 30.13 17.7 77.08 -5.93 123.15 4.4 C 169.22 14.72 201.74 56.15 200.99 103.59 C 200.24 151.02 166.43 191.4 120.06 200.24 C 73.69 209.09 27.51 183.98 9.51 140.12" fill="none" stroke="#d3b34b" stroke-width="5" stroke-miterlimit="10" pointer-events="all"/><path d="M 4 60.88 L 4 60.88 L 4 58 L 18 62 L 4 66 L 4 63.12 L 4 63.12 L 4 62 Z" fill="#d3b34b" stroke="#d3b34b" stroke-width="5" stroke-miterlimit="10" transform="rotate(114,11,62)" pointer-events="all"/></g></svg>