<?xml version="1.0" encoding="UTF-8"?>
<!DOCTYPE svg PUBLIC "-//W3C//DTD SVG 1.1//EN" "http://www.w3.org/Graphics/SVG/1.1/DTD/svg11.dtd">
<svg xmlns="http://www.w3.org/2000/svg" xmlns:xlink="http://www.w3.org/1999/xlink" version="1.1" width="291px" height="233px" viewBox="-0.5 -0.5 291 233"><defs/><g><ellipse cx="83" cy="148" rx="80" ry="80" fill="none" stroke="#d79b00" stroke-width="7" pointer-events="all"/><path d="M 26.43 204.57 L 45.93 185.07 Q 53 178 45.93 170.93 L 30.07 155.07 Q 23 148 32.49 144.84 L 43.51 141.16 Q 53 138 57.47 129.06 L 60.24 123.53 Q 63 118 58.53 109.06 L 55.76 103.53 Q 53 98 58 91 L 60.5 87.5 Q 63 84 60.95 77.86 L 58.91 71.71" fill="none" stroke="#d79b00" stroke-width="7" stroke-miterlimit="10" pointer-events="stroke"/><path d="M 161.91 134.85 L 152.46 136.42 Q 143 138 134.06 133.53 L 128.53 130.76 Q 123 128 118 133 L 115.5 135.5 Q 113 138 103 138 L 98 138 Q 93 138 93 128 L 93 123 Q 93 118 98 113 L 100.5 110.5 Q 103 108 103.63 98.02 L 105.24 72.32" fill="none" stroke="#d79b00" stroke-width="7" stroke-miterlimit="10" pointer-events="stroke"/><path d="M 119.96 218.72 L 111.45 213.34 Q 103 208 95.93 200.93 L 89.46 194.46 Q 83 188 90.25 181.11 L 96.62 175.06 Q 103 169 112.99 168.67 L 123.01 168.33 Q 133 168 142.8 169.98 L 159.96 173.44" fill="none" stroke="#d79b00" stroke-width="7" stroke-miterlimit="10" pointer-events="stroke"/><rect x="171" y="111" width="108" height="6" fill="none" stroke="#d79b00" stroke-width="9" transform="rotate(45,225,114)" pointer-events="all"/><rect x="138" y="47" width="70" height="30" fill="none" stroke="#d79b00" stroke-width="9" transform="rotate(-45,173,62)" pointer-events="all"/><ellipse cx="178" cy="105.5" rx="5" ry="0.5" fill="#ffe6cc" stroke="#d79b00" stroke-width="9" transform="rotate(5,178,105.5)" pointer-events="all"/><ellipse cx="169" cy="117.5" rx="5" ry="0.5" fill="#ffe6cc" stroke="#d79b00" stroke-width="9" transform="rotate(50,169,117.5)" pointer-events="all"/><ellipse cx="116" cy="61.5" rx="5" ry="0.5" fill="#ffe6cc" stroke="#d79b00" stroke-width="9" transform="rotate(50,116,61.5)" pointer-events="all"/><ellipse cx="130" cy="54.5" rx="5" ry="0.5" fill="#ffe6cc" stroke="#d79b00" stroke-width="9" transform="rotate(90,130,54.5)" pointer-events="all"/></g></svg>