<?xml version="1.0" encoding="UTF-8"?>
<!DOCTYPE svg PUBLIC "-//W3C//DTD SVG 1.1//EN" "http://www.w3.org/Graphics/SVG/1.1/DTD/svg11.dtd">
<svg xmlns="http://www.w3.org/2000/svg" xmlns:xlink="http://www.w3.org/1999/xlink" version="1.1" width="290px" height="232px" viewBox="-0.5 -0.5 290 232"><defs/><g><ellipse cx="82" cy="148" rx="80" ry="80" fill="none" stroke="#d79b00" stroke-width="5" pointer-events="all"/><path d="M 25.43 204.57 L 44.93 185.07 Q 52 178 44.93 170.93 L 29.07 155.07 Q 22 148 31.49 144.84 L 42.51 141.16 Q 52 138 56.47 129.06 L 59.24 123.53 Q 62 118 57.53 109.06 L 54.76 103.53 Q 52 98 57 91 L 59.5 87.5 Q 62 84 60.07 77.82 L 58.14 71.64" fill="none" stroke="#d79b00" stroke-width="5" stroke-miterlimit="10" pointer-events="stroke"/><path d="M 160.91 134.85 L 151.46 136.42 Q 142 138 133.06 133.53 L 127.53 130.76 Q 122 128 117 133 L 114.5 135.5 Q 112 138 102 138 L 97 138 Q 92 138 92 128 L 92 123 Q 92 118 97 113 L 99.5 110.5 Q 102 108 102.63 98.02 L 104.24 72.32" fill="none" stroke="#d79b00" stroke-width="5" stroke-miterlimit="10" pointer-events="stroke"/><path d="M 118.96 218.72 L 110.45 213.34 Q 102 208 94.93 200.93 L 88.46 194.46 Q 82 188 89.25 181.11 L 95.62 175.06 Q 102 169 111.99 168.67 L 122.01 168.33 Q 132 168 141.8 169.98 L 158.96 173.44" fill="none" stroke="#d79b00" stroke-width="5" stroke-miterlimit="10" pointer-events="stroke"/><rect x="159" y="106" width="90" height="4" fill="none" stroke="#d79b00" stroke-width="5" transform="rotate(45,204,108)" pointer-events="all"/><rect x="135" y="57" width="57" height="22" fill="none" stroke="#d79b00" stroke-width="5" transform="rotate(-45,163.5,68)" pointer-events="all"/><ellipse cx="171" cy="98.5" rx="5" ry="0.5" fill="#ffe6cc" stroke="#d79b00" stroke-width="5" transform="rotate(5,171,98.5)" pointer-events="all"/><ellipse cx="162" cy="110.5" rx="5" ry="0.5" fill="#ffe6cc" stroke="#d79b00" stroke-width="5" transform="rotate(50,162,110.5)" pointer-events="all"/><ellipse cx="121" cy="67.5" rx="5" ry="0.5" fill="#ffe6cc" stroke="#d79b00" stroke-width="5" transform="rotate(50,121,67.5)" pointer-events="all"/><ellipse cx="134" cy="59.5" rx="5" ry="0.5" fill="#ffe6cc" stroke="#d79b00" stroke-width="5" transform="rotate(90,134,59.5)" pointer-events="all"/></g></svg>