<?xml version="1.0" encoding="UTF-8"?>
<!DOCTYPE svg PUBLIC "-//W3C//DTD SVG 1.1//EN" "http://www.w3.org/Graphics/SVG/1.1/DTD/svg11.dtd">
<svg xmlns="http://www.w3.org/2000/svg" xmlns:xlink="http://www.w3.org/1999/xlink" version="1.1" width="125px" height="138px" viewBox="-0.5 -0.5 125 138"><defs/><g><path d="M 62 135 L 12 135 Q 2 135 6.27 130 L 8.4 127.5 Q 10.53 125 20.53 125 L 103.47 125 Q 113.47 125 117.73 130 L 119.87 132.5 Q 122 135 112 135 Z" fill="#d79b00" stroke="#d79b00" stroke-width="5" stroke-miterlimit="10" pointer-events="all"/><path d="M 62 125 L 62 35" fill="none" stroke="#d79b00" stroke-width="6" stroke-miterlimit="10" pointer-events="stroke"/><path d="M 66.06 31.08 L 102 5" fill="none" stroke="#d79b00" stroke-width="6" stroke-miterlimit="10" pointer-events="stroke"/><path d="M 14 95 Q 29 95 29 107.5 Q 29 120 14 120 Z" fill="#d79b00" stroke="#d79b00" stroke-width="5" stroke-miterlimit="10" transform="rotate(90,21.5,107.5)" pointer-events="all"/><path d="M 8 98.71 L 8 96.86 Q 8 95 12.6 86.12 L 22 68" fill="none" stroke="#d79b00" stroke-width="3" stroke-miterlimit="10" pointer-events="stroke"/><path d="M 35 99.56 L 35 97.28 Q 35 95 30.66 85.99 L 22 68" fill="none" stroke="#d79b00" stroke-width="3" stroke-miterlimit="10" pointer-events="stroke"/><ellipse cx="62" cy="34" rx="5" ry="5" fill="#d79b00" stroke="#d79b00" stroke-width="5" pointer-events="all"/><path d="M 22 65 L 58.04 37.05" fill="none" stroke="#d79b00" stroke-width="6" stroke-miterlimit="10" pointer-events="stroke"/><ellipse cx="22" cy="65.5" rx="2.5" ry="2.5" fill="#0000000" stroke="#d79b00" stroke-width="5" pointer-events="all"/><path d="M 95 34 Q 110 34 110 46.5 Q 110 59 95 59 Z" fill="#d79b00" stroke="#d79b00" stroke-width="5" stroke-miterlimit="10" transform="rotate(90,102.5,46.5)" pointer-events="all"/><path d="M 89 37.63 L 89 35.82 Q 89 34 93.6 25.12 L 103 7" fill="none" stroke="#d79b00" stroke-width="3" stroke-miterlimit="10" pointer-events="stroke"/><path d="M 116 37.73 L 116 35.86 Q 116 34 111.66 24.99 L 103 7" fill="none" stroke="#d79b00" stroke-width="3" stroke-miterlimit="10" pointer-events="stroke"/><ellipse cx="103" cy="4.5" rx="2.5" ry="2.5" fill="#0000000" stroke="#d79b00" stroke-width="5" pointer-events="all"/></g></svg>